<svg xmlns="http://www.w3.org/2000/svg" version="1.1" xmlns:xlink="http://www.w3.org/1999/xlink" xmlns:svgjs="http://svgjs.dev/svgjs" width="56" viewBox="0 0 2000 2533"><g transform="matrix(1,0,0,1,-1.0529843417543816,1.0255060728743501)"><svg viewBox="0 0 195 247" data-background-color="#ffffff" preserveAspectRatio="xMidYMid meet" height="2533" width="2000" xmlns="http://www.w3.org/2000/svg" xmlns:xlink="http://www.w3.org/1999/xlink"><g id="tight-bounds" transform="matrix(1,0,0,1,0.1026659733210522,-0.09999999999999432)"><svg viewBox="0 0 194.79466805335787 247.2" height="247.2" width="194.79466805335787"><g><svg viewBox="0 0 407.5455384 517.1869338070588" height="247.2" width="194.79466805335787"><g transform="matrix(1,0,0,1,6.012769200000008,428.4857573364706)"><svg viewBox="0 0 395.52 88.70117647058824" height="88.70117647058824" width="395.52"><g id="textblocktransform"><svg viewBox="0 0 395.52 88.70117647058824" height="88.70117647058824" width="395.52" id="textblock"><g><svg viewBox="0 0 395.52 88.70117647058824" height="88.70117647058824" width="395.52"><g transform="matrix(1,0,0,1,0,0)"><svg width="395.52" viewBox="6.45 -11.2 13.600000000000001 3.049999999999999" height="88.70117647058824" data-palette-color="#1c70d0"><path d="M6.8-8.15L6.75-8.15Q6.45-8.15 6.45-8.9L6.45-8.9Q6.45-9.5 6.65-10.15 6.85-10.8 7.2-10.85L7.2-10.85Q9.25-11.05 10.93-11.13 12.6-11.2 13.85-11.2L13.85-11.2Q16.15-11.2 17.48-11.05 18.8-10.9 19.45-10.8L19.45-10.8Q20.05-10.7 20.05-10.25L20.05-10.25Q20.05-9.9 19.55-9.9L19.55-9.9Q16.95-9.85 14.95-9.58 12.95-9.3 11.05-8.93 9.15-8.55 6.8-8.15L6.8-8.15Z" opacity="1" transform="matrix(1,0,0,1,0,0)" fill="#1c70d0" class="wordmark-text-0" data-fill-palette-color="primary" id="text-0"></path></svg></g></svg></g></svg></g></svg></g><g><svg viewBox="0 0 407.5455384 407.5455384" height="407.5455384" width="407.5455384"><g><svg></svg></g><g id="icon-0"><svg viewBox="0 0 407.5455384 407.5455384" height="407.5455384" width="407.5455384"><g><rect width="370.56455436" height="370.56455436" x="18.490492020000005" y="18.490492020000005" fill="#1c70d0" data-fill-palette-color="accent"></rect><rect width="370.56455436" height="370.56455436" x="7.105427357601002e-15" y="36.98098404" fill="#1c70d0" opacity="0.5" data-fill-palette-color="accent"></rect></g><g transform="matrix(1,0,0,1,52.8299772,61.70896496470584)"><svg viewBox="0 0 301.885584 284.1276084705883" height="284.1276084705883" width="301.885584"><g><svg xmlns="http://www.w3.org/2000/svg" xmlns:xlink="http://www.w3.org/1999/xlink" version="1.0" x="0" y="0" viewBox="18.9 21 62.04999999999999 58.400000000000006" enable-background="new 0 0 100 100" xml:space="preserve" height="284.1276084705883" width="301.885584" class="icon-dxe-0" data-fill-palette-color="quaternary" id="dxe-0"><path d="M56.6 58.4C56.2 58.4 55.8 58.2 55.5 57.9 54.9 57.3 54.9 56.2 55.5 55.6L77.3 33.8 68.3 24.8 46.5 46.7C45.9 47.3 44.8 47.3 44.2 46.7S43.6 45 44.2 44.4L67.1 21.5C67.4 21.2 67.8 21 68.2 21S69 21.2 69.3 21.5L80.5 32.8C81.1 33.4 81.1 34.5 80.5 35.1L57.8 58C57.4 58.3 57 58.4 56.6 58.4" fill="#ffffff" data-fill-palette-color="quaternary"></path><path d="M39.4 64.4C39 64.4 38.6 64.2 38.3 63.9 37.9 63.5 37.7 62.8 37.9 62.2L43.5 45.3C43.8 44.5 44.6 44 45.5 44.3L54.2 46.8C54.7 47 55.2 47.4 55.3 47.9L57.5 56C57.6 56.2 57.8 56.3 57.8 56.6 58 57.2 57.8 57.9 57.3 58.3 57.1 58.5 56.8 58.7 56.5 58.8 56.4 58.8 56.2 58.9 56.1 58.9L39.9 64.3C39.7 64.4 39.6 64.4 39.4 64.4M46.1 47.9L42 60.2 54.2 56.1 52.5 49.7z" fill="#ffffff" data-fill-palette-color="quaternary"></path><path d="M53.8 50.1C53.4 50.1 53 49.9 52.7 49.6 52.1 49 52.1 47.9 52.7 47.3L71.9 28C72.5 27.4 73.6 27.4 74.2 28S74.8 29.7 74.2 30.3L54.9 49.6C54.6 49.9 54.2 50.1 53.8 50.1" fill="#ffffff" data-fill-palette-color="quaternary"></path><path d="M39 64.5H20.5C19.6 64.5 18.9 63.8 18.9 62.9S19.6 61.3 20.5 61.3H39C39.9 61.3 40.6 62 40.6 62.9S39.9 64.5 39 64.5" fill="#ffffff" data-fill-palette-color="quaternary"></path><path d="M34.4 79.4H25.1C24 79.4 23.1 78.5 23.1 77.4S24 75.4 25.1 75.4H34.4C35.5 75.4 36.4 76.3 36.4 77.4S35.5 79.4 34.4 79.4" fill="#ffffff" data-fill-palette-color="quaternary"></path><path d="M29.3 78.4C28.4 78.4 27.7 77.7 27.7 76.8V63.4C27.7 62.5 28.4 61.8 29.3 61.8S30.9 62.5 30.9 63.4V76.8C31 77.7 30.2 78.4 29.3 78.4" fill="#ffffff" data-fill-palette-color="quaternary"></path><path d="M20.5 68.2C19.6 68.2 18.9 67.5 18.9 66.6V63C18.9 62.1 19.6 61.4 20.5 61.4S22.1 62.1 22.1 63V66.6C22.1 67.5 21.3 68.2 20.5 68.2" fill="#ffffff" data-fill-palette-color="quaternary"></path></svg></g></svg></g></svg></g></svg></g><g></g></svg></g><defs></defs></svg><rect width="194.79466805335787" height="247.2" fill="none" stroke="none" visibility="hidden"></rect></g></svg></g></svg>